<svg width="8" height="8" viewBox="0 0 8 8" fill="none" xmlns="http://www.w3.org/2000/svg">
<path d="M0.604492 4.5001H6.18949L3.74949 6.9401C3.55449 7.1351 3.55449 7.4551 3.74949 7.6501C3.94449 7.8451 4.25949 7.8451 4.45449 7.6501L7.74949 4.3551C7.94449 4.1601 7.94449 3.8451 7.74949 3.6501L4.45949 0.3501C4.36608 0.256474 4.23925 0.203857 4.10699 0.203857C3.97473 0.203857 3.84791 0.256474 3.75449 0.3501C3.55949 0.5451 3.55949 0.8601 3.75449 1.0551L6.18949 3.5001H0.604492C0.329492 3.5001 0.104492 3.7251 0.104492 4.0001C0.104492 4.2751 0.329492 4.5001 0.604492 4.5001Z" fill="#37474F"/>
</svg>
