<svg width="32" height="21" viewBox="0 0 32 21" fill="none" xmlns="http://www.w3.org/2000/svg">
<path id="Credit card" fill-rule="evenodd" clip-rule="evenodd" d="M21.1331 15.584C21.1331 15.093 21.5391 14.6966 22.0388 14.6966H25.0578C25.5574 14.6966 25.962 15.093 25.962 15.584C25.962 16.075 25.5574 16.4714 25.0578 16.4714H22.0388C21.5391 16.4714 21.1331 16.075 21.1331 15.584ZM30.1901 5.66892H1.81141V3.84534C1.81141 2.70357 2.75938 1.77329 3.92471 1.77329H28.0768C29.2406 1.77329 30.1901 2.70357 30.1901 3.84534V5.66892ZM30.1901 17.1547C30.1901 18.2964 29.2406 19.2267 28.0768 19.2267H3.92471C2.75938 19.2267 1.81141 18.2964 1.81141 17.1547V7.44369H30.1901V17.1547ZM28.0768 0H3.92471C1.76008 0 0 1.72449 0 3.84534V17.1547C0 19.2755 1.76008 21 3.92471 21H28.0768C30.2399 21 32 19.2755 32 17.1547V3.84534C32 1.72449 30.2399 0 28.0768 0Z" fill="#717CFF"/>
</svg>
