<svg width="35" height="32" viewBox="0 0 35 32" fill="none" xmlns="http://www.w3.org/2000/svg">
<path id="Home" fill-rule="evenodd" clip-rule="evenodd" d="M28.5776 27.0127C28.5776 28.659 27.171 29.9984 25.4409 29.9984H21.7924V20.9245C21.7924 20.3724 21.3499 19.9237 20.8018 19.9237H14.1982C13.6501 19.9237 13.2076 20.3724 13.2076 20.9245V29.9984H8.93181C7.20166 29.9984 5.79509 28.659 5.79509 27.0127V13.527L17.0328 2.17131C17.292 1.9111 17.7097 1.9111 17.9672 2.17131L28.5776 12.8932V27.0127ZM15.1887 29.9317H19.8113V21.9253H15.1887V29.9317ZM34.709 16.2575L19.3672 0.756851C18.37 -0.252284 16.63 -0.252284 15.6328 0.756851L0.290972 16.2575C-0.0969906 16.6495 -0.0969906 17.2833 0.290972 17.6736C0.677284 18.0639 1.30463 18.0639 1.69094 17.6736L3.814 15.5286V27.0127C3.814 29.7632 6.11041 32 8.93181 32H25.4409C28.2639 32 30.5587 29.7632 30.5587 27.0127V14.8947L33.3091 17.6736C33.5022 17.8688 33.7548 17.9672 34.009 17.9672C34.2616 17.9672 34.5159 17.8688 34.709 17.6736C35.097 17.2833 35.097 16.6495 34.709 16.2575Z" fill="#717CFF"/>
</svg>
