<svg width="24" height="24" viewBox="0 0 24 24" fill="none" xmlns="http://www.w3.org/2000/svg">
<path id="Check mark rounded" fill-rule="evenodd" clip-rule="evenodd" d="M22.6426 12C22.6426 6.13132 17.8684 1.35849 12.0006 1.35849C6.13161 1.35849 1.35742 6.13132 1.35742 12C1.35742 17.8687 6.13161 22.6415 12.0006 22.6415C17.8684 22.6415 22.6426 17.8687 22.6426 12ZM24 12C24 18.617 18.6167 24 12.0006 24C5.38327 24 0 18.617 0 12C0 5.38302 5.38327 0 12.0006 0C18.6167 0 24 5.38302 24 12ZM16.6729 8.74302C16.9378 9.00679 16.9378 9.43811 16.6729 9.70302L11.1175 15.257C10.985 15.3894 10.8118 15.4562 10.6375 15.4562C10.4643 15.4562 10.2911 15.3894 10.1586 15.257L7.32827 12.4268C7.06222 12.163 7.06222 11.7317 7.32827 11.4668C7.59319 11.2019 8.02227 11.2019 8.28718 11.4668L10.6375 13.8158L15.7128 8.74302C15.9777 8.47811 16.4068 8.47811 16.6729 8.74302Z" fill="#717CFF"/>
</svg>
