<svg width="32" height="30" viewBox="0 0 32 30" fill="none" xmlns="http://www.w3.org/2000/svg">
<path fill-rule="evenodd" clip-rule="evenodd" d="M25.7434 16.6449C25.7434 17.1411 25.3374 17.5459 24.8377 17.5459H19.4475C18.9479 17.5459 18.5419 17.1411 18.5419 16.6449C18.5419 16.1486 18.9479 15.7438 19.4475 15.7438H24.8377C25.3374 15.7438 25.7434 16.1486 25.7434 16.6449ZM25.7434 11.1786C25.7434 11.6763 25.3374 12.0781 24.8377 12.0781H19.4475C18.9479 12.0781 18.5419 11.6763 18.5419 11.1786C18.5419 10.6808 18.9479 10.279 19.4475 10.279H24.8377C25.3374 10.279 25.7434 10.6808 25.7434 11.1786ZM8.06641 16.5819H13.4445V11.2415H8.06641V16.5819ZM14.3487 9.4424H7.16075C6.66113 9.4424 6.2566 9.8442 6.2566 10.342V17.4815C6.2566 17.9792 6.66113 18.381 7.16075 18.381H14.3487C14.8483 18.381 15.2543 17.9792 15.2543 17.4815V10.342C15.2543 9.8442 14.8483 9.4424 14.3487 9.4424ZM30.1887 23.9178L26.0558 27.8534L21.6438 23.6525C21.2936 23.3181 20.7411 23.3166 20.3894 23.654L15.9864 27.8534L11.5849 23.654C11.2347 23.3166 10.6808 23.3166 10.3291 23.654L5.92906 27.8534L1.81132 23.9178V4.46932C1.81132 2.99704 3.01585 1.79912 4.49962 1.79912H27.5004C28.9826 1.79912 30.1887 2.99704 30.1887 4.46932V23.9178ZM27.5004 0H4.49962C2.01811 0 0 2.00452 0 4.46932V24.1982C0 24.2192 0.010566 24.2342 0.0120755 24.2537C-0.00301887 24.5056 0.08 24.7604 0.277736 24.9508L5.30113 29.747C5.65132 30.0813 6.20679 30.0843 6.55698 29.747L10.957 25.5475L15.3585 29.747C15.7102 30.0843 16.2642 30.0843 16.6143 29.747L21.0174 25.5475L25.4294 29.7485C25.6045 29.9164 25.8309 29.9989 26.0558 29.9989C26.2808 29.9989 26.5072 29.9164 26.6823 29.7485L31.7208 24.9508C31.9185 24.7619 32.0015 24.5071 31.9879 24.2552C31.9894 24.2342 32 24.2192 32 24.1982V4.46932C32 2.00452 29.9819 0 27.5004 0Z" fill="#717CFF"/>
</svg>
