<svg width="16" height="16" viewBox="0 0 16 16" fill="none" xmlns="http://www.w3.org/2000/svg">
<path fill-rule="evenodd" clip-rule="evenodd" d="M8.97756 12.3475L10.7553 10.5697C10.9735 10.3515 11.2967 10.2788 11.5796 10.3758C12.4846 10.6748 13.4624 10.8364 14.4644 10.8364C14.9089 10.8364 15.2725 11.2 15.2725 11.6445V14.4647C15.2725 14.9091 14.9089 15.2727 14.4644 15.2727C6.87655 15.2727 0.727051 9.12325 0.727051 1.53538C0.727051 1.09093 1.09069 0.727295 1.53513 0.727295H4.36341C4.80786 0.727295 5.1715 1.09093 5.1715 1.53538C5.1715 2.54548 5.33311 3.51517 5.6321 4.42022C5.72099 4.70305 5.65634 5.0182 5.43008 5.24447L3.6523 7.02224C4.81594 9.30911 6.69069 11.1758 8.97756 12.3475Z" fill="white"/>
</svg>
