<svg width="27" height="24" viewBox="0 0 27 24" fill="none" xmlns="http://www.w3.org/2000/svg">
<path id="Pie chart" fill-rule="evenodd" clip-rule="evenodd" d="M25.3337 11.0663C25.275 11.1311 25.1486 11.2379 24.9494 11.2379H13.558L19.9271 1.88781C20.0395 1.72509 20.1978 1.6806 20.2833 1.66788C20.365 1.65644 20.5323 1.65517 20.6855 1.77976C22.0361 2.88956 23.1379 4.23073 23.9626 5.76514C24.7835 7.29445 25.2903 8.94327 25.4665 10.6696C25.4856 10.8679 25.3912 11.004 25.3337 11.0663ZM12.1141 22.4758C6.27853 22.4758 1.5307 17.7747 1.5307 11.9994C1.5307 6.22406 6.27853 1.5255 12.1141 1.5255C13.9729 1.5255 15.7627 2.03019 17.3598 2.94041L11.4796 11.5722C11.32 11.8061 11.3047 12.1087 11.4362 12.3579C11.5702 12.607 11.8307 12.7634 12.1141 12.7634H22.6566C22.2596 18.1827 17.6879 22.4758 12.1141 22.4758ZM25.3133 5.04688C24.3954 3.33577 23.1673 1.84078 21.6608 0.603846C21.2178 0.240267 20.6446 0.0775465 20.065 0.158907C19.4956 0.238996 18.9824 0.55808 18.6594 1.03099L18.2203 1.67805C16.3666 0.597489 14.2805 0 12.1141 0C5.4334 0 0 5.38249 0 11.9994C0 18.6162 5.4334 24 12.1141 24C18.533 24 23.7877 19.0243 24.1873 12.7634H24.9494C25.5265 12.7634 26.0818 12.5193 26.4699 12.0896C26.858 11.6625 27.0483 11.0891 26.9895 10.5171C26.7942 8.59113 26.2286 6.75036 25.3133 5.04688Z" fill="#717CFF"/>
</svg>
