<svg width="32" height="32" viewBox="0 0 32 32" fill="none" xmlns="http://www.w3.org/2000/svg">
<path fill-rule="evenodd" clip-rule="evenodd" d="M16.9049 16.7721V18.973C16.9049 19.4726 16.4989 19.8772 15.9992 19.8772C15.4996 19.8772 15.0951 19.4726 15.0951 18.973V15.954C15.0951 15.4543 15.4996 15.0483 15.9992 15.0483C17.5812 15.0483 18.8688 13.7622 18.8688 12.1802C18.8688 10.5665 17.5812 9.28044 15.9992 9.28044C14.4188 9.28044 13.1312 10.5665 13.1312 12.1485C13.1312 12.6497 12.7251 13.0693 12.2255 13.0693C11.7258 13.0693 11.3213 12.6814 11.3213 12.1802V12.1485C11.3213 9.56875 13.4195 7.46903 15.9992 7.46903C18.579 7.46903 20.6787 9.56875 20.6787 12.1485C20.6787 14.4475 19.0545 16.3495 16.9049 16.7721ZM15.9992 23.6268C15.332 23.6268 14.7932 23.0849 14.7932 22.4162C14.7932 21.7474 15.332 21.207 15.9992 21.207C16.6664 21.207 17.2069 21.7474 17.2069 22.4162C17.2069 23.0849 16.6664 23.6268 15.9992 23.6268ZM1.8099 16.0008C1.8099 8.17699 8.17548 1.81141 15.9992 1.81141C23.8245 1.81141 30.1901 8.17699 30.1901 16.0008C30.1901 23.8245 23.8245 30.1901 15.9992 30.1901C8.17548 30.1901 1.8099 23.8245 1.8099 16.0008ZM0 16.0008C0 24.8223 7.1777 32 15.9992 32C24.8223 32 32 24.8223 32 16.0008C32 7.1777 24.8223 0 15.9992 0C7.1777 0 0 7.1777 0 16.0008Z" fill="#717CFF"/>
</svg>
