<svg width="32" height="32" viewBox="0 0 32 32" fill="none" xmlns="http://www.w3.org/2000/svg">
<path id="Send" fill-rule="evenodd" clip-rule="evenodd" d="M18.4578 29.7047C18.3184 30.0532 18.0127 30.0959 17.8875 30.0991C17.7386 30.0817 17.4534 30.069 17.3014 29.73L13.0273 20.3142L28.4317 4.91205L18.4578 29.7047ZM2.26924 14.6986C1.92706 14.5449 1.89696 14.2376 1.90013 14.1125C1.9033 13.9873 1.94607 13.6816 2.29459 13.5422L27.0883 3.56874L11.6855 18.9724L2.26924 14.6986ZM31.9311 0.598575L31.9279 0.589071C31.9153 0.562141 31.9042 0.535212 31.8899 0.508282C31.8773 0.484521 31.8614 0.457591 31.844 0.432246C31.8424 0.429078 31.8392 0.424325 31.8361 0.421157C31.8234 0.400564 31.8091 0.379971 31.7933 0.362546C31.7885 0.357794 31.7838 0.351457 31.779 0.345121C31.76 0.322944 31.7426 0.300766 31.7204 0.280173C31.6982 0.257996 31.6761 0.237403 31.6539 0.219978C31.6491 0.21681 31.6444 0.212057 31.6396 0.208889C31.6206 0.191464 31.5984 0.175623 31.5747 0.161366C31.5731 0.159782 31.5715 0.158198 31.5683 0.156614C31.3117 -0.0128835 30.9854 -0.0493176 30.6955 0.0694892L1.58646 11.7791C0.629629 12.1624 0.0213107 13.04 0.000716591 14.0713C-0.0230459 15.1009 0.545669 16.0054 1.48349 16.4316L11.1722 20.8274L15.5683 30.5157C15.9849 31.4361 16.8641 32 17.8701 32C17.8907 32 17.9097 32 17.9287 31.9984C18.9584 31.9778 19.8376 31.3695 20.221 30.4127L31.9311 1.30508C31.9422 1.27815 31.9517 1.25122 31.958 1.22429C31.9596 1.22271 31.9596 1.22112 31.9596 1.21954C31.9691 1.19103 31.9755 1.16093 31.9818 1.134V1.13241C32.0182 0.953412 31.9992 0.766489 31.9311 0.598575Z" fill="#717CFF"/>
</svg>
