<svg width="30" height="31" viewBox="0 0 30 31" fill="none" xmlns="http://www.w3.org/2000/svg">
<path fill-rule="evenodd" clip-rule="evenodd" d="M15.9358 28.1275H24.0935V16.2291H15.9358V28.1275ZM5.90463 28.1275H14.0624V16.2291H5.90463V28.1275ZM2.12498 14.3542L14.9999 1.94334L27.8747 14.3542H2.12498ZM29.0622 28.1275H25.9685V16.2291H28.2904C28.9903 16.2291 29.6138 15.8088 29.8747 15.1588C30.1372 14.5088 29.9794 13.776 29.4747 13.2901L16.1858 0.482417C15.517 -0.161327 14.4749 -0.159764 13.8155 0.480855L0.524995 13.2901C0.0203123 13.776 -0.135936 14.5088 0.126561 15.1588C0.387496 15.8088 1.00937 16.2291 1.70936 16.2291H4.03277V28.1275H0.937491C0.420308 28.1275 0 28.5462 0 29.065C0 29.5837 0.420308 30.0024 0.937491 30.0024H29.0622C29.5794 30.0024 29.9997 29.5837 29.9997 29.065C29.9997 28.5462 29.5794 28.1275 29.0622 28.1275Z" fill="#FF5959"/>
</svg>
