<svg width="30" height="30" viewBox="0 0 30 30" fill="none" xmlns="http://www.w3.org/2000/svg">
<path fill-rule="evenodd" clip-rule="evenodd" d="M9.13585 18.2179C5.03491 18.2179 1.69953 14.8825 1.69953 10.7816V7.74481C1.69953 7.43208 1.95283 7.17877 2.26557 7.17877H16.4165C16.7278 7.17877 16.9825 7.43208 16.9825 7.74481V10.7816C16.9825 14.8825 13.6458 18.2179 9.54481 18.2179H9.13585ZM29.1524 12.8222C25.4646 12.8222 22.466 15.8222 22.466 19.5099V22.1632C22.466 25.5481 19.7123 28.3019 16.3274 28.3019C12.9425 28.3019 10.1901 25.5481 10.1901 22.1632V19.8835C14.9264 19.5509 18.6792 15.6 18.6792 10.7816V7.74481C18.6792 6.4967 17.6632 5.48066 16.4165 5.48066H13.3741V0.849057C13.3741 0.38066 12.9934 0 12.525 0C12.0552 0 11.6745 0.38066 11.6745 0.849057V5.48066H6.00142V0.849057C6.00142 0.38066 5.62075 0 5.15236 0C4.68255 0 4.30189 0.38066 4.30189 0.849057V5.48066H2.26557C1.01604 5.48066 0 6.4967 0 7.74481V10.7816C0 15.6 3.75425 19.5509 8.49057 19.8835V22.1632C8.49057 26.4849 12.0071 30 16.3274 30C20.6491 30 24.1627 26.4849 24.1627 22.1632V19.5099C24.1627 16.759 26.4014 14.5203 29.1524 14.5203C29.6208 14.5203 30 14.141 30 13.6712C30 13.2028 29.6208 12.8222 29.1524 12.8222Z" fill="#FF5959"/>
</svg>
