<svg width="29" height="32" viewBox="0 0 29 32" fill="none" xmlns="http://www.w3.org/2000/svg">
<path fill-rule="evenodd" clip-rule="evenodd" d="M27.1704 17.1318C27.1704 17.4654 26.8987 17.7355 26.5666 17.7355H2.41515C2.08155 17.7355 1.80985 17.4654 1.80985 17.1318V14.4902C1.80985 10.9475 3.23479 7.66137 5.8205 5.23717C8.1964 3.01071 11.244 1.81068 14.4818 1.81068C14.7641 1.81068 15.0509 1.81974 15.3362 1.83785C21.9718 2.26805 27.1704 8.02968 27.1704 14.9551V17.1318ZM16.7551 28.2263C18.02 28.2263 19.0947 29.0505 19.4751 30.1886H9.50511C9.88549 29.0505 10.9617 28.2263 12.2267 28.2263H16.7551ZM15.4524 0.0310199C11.407 -0.228608 7.53525 1.14802 4.58123 3.91639C1.66796 6.6455 0 10.4992 0 14.4902V17.1318C0 18.4631 1.08229 19.5469 2.41515 19.5469H13.5852V26.415H12.2267C9.647 26.415 7.54733 28.5146 7.54733 31.0943C7.54733 31.5955 7.95187 32 8.45301 32H20.5287C21.0284 32 21.4329 31.5955 21.4329 31.0943C21.4329 28.5146 19.3347 26.415 16.7551 26.415H15.395V19.5469H26.5666C27.8964 19.5469 28.9802 18.4631 28.9802 17.1318V14.9551C28.9802 7.07721 23.039 0.521596 15.4524 0.0310199Z" fill="#FF5959"/>
</svg>
