<svg width="30" height="28" viewBox="0 0 30 28" fill="none" xmlns="http://www.w3.org/2000/svg">
<path fill-rule="evenodd" clip-rule="evenodd" d="M29.1509 12.7358H0.849057C0.38066 12.7358 0 13.1165 0 13.5849C0 14.0547 0.38066 14.434 0.849057 14.434H29.1509C29.6193 14.434 30 14.0547 30 13.5849C30 13.1165 29.6193 12.7358 29.1509 12.7358ZM27.7358 19.1038C27.2675 19.1038 26.8868 19.4844 26.8868 19.9528V21.2264C26.8868 23.567 24.9835 25.4717 22.6415 25.4717H7.35849C5.01651 25.4717 3.11321 23.567 3.11321 21.2264V19.9528C3.11321 19.4844 2.73255 19.1038 2.26415 19.1038C1.79575 19.1038 1.41509 19.4844 1.41509 19.9528V21.2264C1.41509 24.5038 4.08113 27.1698 7.35849 27.1698H22.6415C25.9189 27.1698 28.5849 24.5038 28.5849 21.2264V19.9528C28.5849 19.4844 28.2042 19.1038 27.7358 19.1038ZM1.41509 7.21698V5.9434C1.41509 2.66604 4.08113 0 7.35849 0H22.6415C25.9189 0 28.5849 2.66604 28.5849 5.9434V7.21698C28.5849 7.68679 28.2042 8.06604 27.7358 8.06604C27.2675 8.06604 26.8868 7.68679 26.8868 7.21698V5.9434C26.8868 3.60283 24.9835 1.69811 22.6415 1.69811H7.35849C5.01651 1.69811 3.11321 3.60283 3.11321 5.9434V7.21698C3.11321 7.68679 2.73255 8.06604 2.26415 8.06604C1.79575 8.06604 1.41509 7.68679 1.41509 7.21698Z" fill="#FF5959"/>
</svg>
