<svg width="29" height="32" viewBox="0 0 29 32" fill="none" xmlns="http://www.w3.org/2000/svg">
<path fill-rule="evenodd" clip-rule="evenodd" d="M26.933 21.9794C26.933 22.7554 26.5147 23.4769 25.8444 23.8641L15.488 29.8447C14.8162 30.2335 13.9812 30.2319 13.3094 29.8447L2.95298 23.8641C2.28122 23.4769 1.86447 22.7554 1.86447 21.9794V10.0213C1.86447 9.24538 2.28122 8.52229 2.95298 8.13509L13.3094 2.15604C13.6453 1.96166 14.0216 1.86525 14.3979 1.86525C14.7758 1.86525 15.1521 1.96166 15.488 2.15448L25.8444 8.13665C26.5147 8.52229 26.933 9.24538 26.933 10.0213V21.9794ZM26.7759 6.51943L16.4195 0.538815C15.1723 -0.179605 13.622 -0.179605 12.378 0.538815L2.01997 6.51943C0.7744 7.23784 0 8.57983 0 10.0213V21.9794C0 23.4209 0.7744 24.7629 2.01997 25.4798L12.378 31.462C13.0015 31.8212 13.6997 32 14.3979 32C15.0977 32 15.7975 31.8212 16.4195 31.4604L26.7759 25.4814C28.023 24.7629 28.7974 23.4209 28.7974 21.9794V10.0213C28.7974 8.57983 28.023 7.23784 26.7759 6.51943Z" fill="#FF5959"/>
</svg>
