<svg width="32" height="19" viewBox="0 0 32 19" fill="none" xmlns="http://www.w3.org/2000/svg">
<path fill-rule="evenodd" clip-rule="evenodd" d="M30.3461 12.2648C30.3461 12.6386 30.0496 12.9318 29.6716 12.9318H28.8592C28.4812 10.7999 26.608 9.16999 24.3445 9.16999C22.0837 9.16999 20.2091 10.7999 19.8326 12.9318H12.1674C11.7922 10.7999 9.91629 9.16999 7.65412 9.16999C5.39196 9.16999 3.51739 10.7999 3.14083 12.9318H2.32838C1.95043 12.9318 1.65386 12.6386 1.65386 12.2648V9.93927C1.65386 9.07042 2.19044 8.2725 3.00703 7.94514L3.55602 7.71054C3.79051 7.61506 4.01673 7.49912 4.24156 7.38182H26.4508L27.7309 7.76646C29.2702 8.22885 30.3461 9.66648 30.3461 11.2596V12.2648ZM24.3445 16.6173C22.7265 16.6173 21.4078 15.3133 21.4078 13.7134C21.4078 12.1107 22.7265 10.8068 24.3445 10.8068C25.9653 10.8068 27.2839 12.1107 27.2839 13.7134C27.2839 15.3133 25.9653 16.6173 24.3445 16.6173ZM7.65412 16.6173C6.03474 16.6173 4.71744 15.3133 4.71744 13.7134C4.71744 12.1107 6.03474 10.8068 7.65412 10.8068C9.27488 10.8068 10.5936 12.1107 10.5936 13.7134C10.5936 15.3133 9.27488 16.6173 7.65412 16.6173ZM6.62511 5.54046L8.07621 3.89551C9.3673 2.46061 11.2032 1.6354 13.1178 1.6354H13.5509V5.74642H6.41683C6.4858 5.67549 6.56028 5.61411 6.62511 5.54046ZM15.2076 1.6354H15.3317C17.049 1.6354 18.6849 2.28193 19.936 3.45085L22.1251 5.51045C22.223 5.60047 22.3417 5.66322 22.4465 5.74642H15.2076V1.6354ZM28.2122 6.20062L24.7183 5.149C24.179 4.99078 23.6741 4.70298 23.2603 4.32107L21.074 2.2642C19.5126 0.80338 17.4739 0 15.3317 0H13.1178C10.7301 0 8.44312 1.02298 6.83478 2.81388L5.3823 4.45746C4.69813 5.2172 3.84706 5.81871 2.91185 6.20335L2.367 6.43659C0.929695 7.01219 0 8.38707 0 9.93927V12.2648C0 13.5361 1.04556 14.5672 2.32838 14.5672H3.14772C3.55464 16.6637 5.41816 18.2541 7.65412 18.2541C9.89146 18.2541 11.7536 16.6637 12.1605 14.5672H19.8409C20.2464 16.6637 22.1085 18.2541 24.3445 18.2541C26.5818 18.2541 28.4454 16.6637 28.8509 14.5672H29.6716C30.9558 14.5672 32 13.5361 32 12.2648V11.2596C32 8.95039 30.4427 6.8717 28.2122 6.20062Z" fill="#FF5959"/>
</svg>
