<svg width="30" height="31" viewBox="0 0 30 31" fill="none" xmlns="http://www.w3.org/2000/svg">
<path id="Building" fill-rule="evenodd" clip-rule="evenodd" d="M28.3032 13.4087C28.3032 12.3161 27.4131 11.4274 26.322 11.4274H21.509V28.3032H28.3032V13.4087ZM19.8123 3.67942C19.8123 2.58691 18.9221 1.69819 17.831 1.69819H3.67942C2.58691 1.69819 1.69678 2.58691 1.69678 3.67942V28.3032H19.8123V3.67942ZM30 13.4087V29.1523C30 29.6222 29.6207 30.0014 29.1523 30.0014H0.849097C0.380678 30.0014 0 29.6222 0 29.1523V3.67942C0 1.65008 1.65008 0 3.67942 0H17.831C19.859 0 21.509 1.65008 21.509 3.67942V9.72923H26.322C28.3499 9.72923 30 11.3793 30 13.4087ZM14.5096 20.1066C14.0412 20.1066 13.6606 20.4873 13.6606 20.9557V24.1993C13.6606 24.6691 14.0412 25.0484 14.5096 25.0484C14.9781 25.0484 15.3587 24.6691 15.3587 24.1993V20.9557C15.3587 20.4873 14.9781 20.1066 14.5096 20.1066ZM6.99939 20.1066C6.53097 20.1066 6.15171 20.4873 6.15171 20.9557V24.1993C6.15171 24.6691 6.53097 25.0484 6.99939 25.0484C7.4678 25.0484 7.84848 24.6691 7.84848 24.1993V20.9557C7.84848 20.4873 7.4678 20.1066 6.99939 20.1066ZM14.5096 12.5298C14.0412 12.5298 13.6606 12.9091 13.6606 13.3789V16.6225C13.6606 17.0923 14.0412 17.4716 14.5096 17.4716C14.9781 17.4716 15.3587 17.0923 15.3587 16.6225V13.3789C15.3587 12.9091 14.9781 12.5298 14.5096 12.5298ZM6.99939 12.5298C6.53097 12.5298 6.15171 12.9091 6.15171 13.3789V16.6225C6.15171 17.0923 6.53097 17.4716 6.99939 17.4716C7.4678 17.4716 7.84848 17.0923 7.84848 16.6225V13.3789C7.84848 12.9091 7.4678 12.5298 6.99939 12.5298ZM14.5096 4.95306C14.0412 4.95306 13.6606 5.33233 13.6606 5.80216V9.04571C13.6606 9.51413 14.0412 9.89481 14.5096 9.89481C14.9781 9.89481 15.3587 9.51413 15.3587 9.04571V5.80216C15.3587 5.33233 14.9781 4.95306 14.5096 4.95306ZM7.84848 5.80216V9.04571C7.84848 9.51413 7.4678 9.89481 6.99939 9.89481C6.53097 9.89481 6.15171 9.51413 6.15171 9.04571V5.80216C6.15171 5.33233 6.53097 4.95306 6.99939 4.95306C7.4678 4.95306 7.84848 5.33233 7.84848 5.80216Z" fill="#FF5959"/>
</svg>
