<svg width="32" height="29" viewBox="0 0 32 29" fill="none" xmlns="http://www.w3.org/2000/svg">
<path id="Home" fill-rule="evenodd" clip-rule="evenodd" d="M26.1281 24.4443C26.1281 25.9341 24.8421 27.1462 23.2602 27.1462H19.9244V18.935C19.9244 18.4354 19.5199 18.0294 19.0188 18.0294H12.9812C12.4801 18.0294 12.0756 18.4354 12.0756 18.935V27.1462H8.16622C6.58437 27.1462 5.29837 25.9341 5.29837 24.4443V12.2408L15.5728 1.96486C15.8098 1.72939 16.1917 1.72939 16.4272 1.96486L26.1281 11.6673V24.4443ZM13.8868 27.0858H18.1132V19.8407H13.8868V27.0858ZM31.734 14.7117L17.7071 0.684889C16.7955 -0.228297 15.2045 -0.228297 14.2929 0.684889L0.266031 14.7117C-0.0886771 15.0664 -0.0886771 15.64 0.266031 15.9932C0.619231 16.3464 1.1928 16.3464 1.546 15.9932L3.48709 14.0521V24.4443C3.48709 26.9333 5.58666 28.9574 8.16622 28.9574H23.2602C25.8413 28.9574 27.9393 26.9333 27.9393 24.4443V13.4785L30.454 15.9932C30.6306 16.1698 30.8615 16.2589 31.094 16.2589C31.3249 16.2589 31.5574 16.1698 31.734 15.9932C32.0887 15.64 32.0887 15.0664 31.734 14.7117Z" fill="#FF5959"/>
</svg>
