<svg width="24" height="24" viewBox="0 0 24 24" fill="none" xmlns="http://www.w3.org/2000/svg">
<path id="Send" fill-rule="evenodd" clip-rule="evenodd" d="M13.8434 22.2795C13.7388 22.5409 13.5095 22.573 13.4156 22.5754C13.3039 22.5623 13.0901 22.5528 12.976 22.2985L9.77047 15.2363L21.3238 3.68421L13.8434 22.2795ZM1.70193 11.0244C1.44529 10.9092 1.42272 10.6787 1.4251 10.5848C1.42747 10.491 1.45955 10.2617 1.72094 10.1571L20.3162 2.67668L8.76413 14.23L1.70193 11.0244ZM23.9483 0.448952L23.946 0.441824C23.9365 0.421625 23.9281 0.401427 23.9174 0.381229C23.9079 0.363407 23.8961 0.343209 23.883 0.324199C23.8818 0.321823 23.8794 0.318259 23.8771 0.315883C23.8675 0.300437 23.8569 0.284991 23.845 0.271922C23.8414 0.268358 23.8378 0.263605 23.8343 0.258853C23.82 0.242219 23.807 0.225585 23.7903 0.21014C23.7737 0.193506 23.7571 0.17806 23.7404 0.164991C23.7369 0.162615 23.7333 0.15905 23.7297 0.156674C23.7155 0.143605 23.6988 0.131724 23.681 0.12103C23.6798 0.119842 23.6786 0.118654 23.6763 0.117466C23.4838 -0.00966309 23.239 -0.0369899 23.0216 0.0521193L1.18985 8.83472C0.472222 9.12225 0.015983 9.78047 0.000537443 10.5539C-0.0172844 11.3262 0.409252 12.0046 1.11262 12.3242L8.37918 15.6213L11.6762 22.8878C11.9887 23.5781 12.6481 24.0011 13.4026 24.0011C13.418 24.0011 13.4323 24.0011 13.4465 23.9999C14.2188 23.9845 14.8782 23.5282 15.1657 22.8106L23.9483 0.978855C23.9567 0.958657 23.9638 0.938459 23.9685 0.918261C23.9697 0.917073 23.9697 0.915884 23.9697 0.914696C23.9769 0.89331 23.9816 0.870736 23.9864 0.850538V0.84935C24.0137 0.715092 23.9994 0.574893 23.9483 0.448952Z" fill="#717CFF"/>
</svg>
