<svg width="34" height="34" viewBox="0 0 34 34" fill="none" xmlns="http://www.w3.org/2000/svg">
<path fill-rule="evenodd" clip-rule="evenodd" d="M16.1995 16.1995C16.6414 15.7576 17.3586 15.7576 17.8005 16.1995C18.2424 16.6414 18.2424 17.3586 17.8005 17.8005C17.3586 18.2424 16.6414 18.2424 16.1995 17.8005C15.7576 17.3586 15.7576 16.6414 16.1995 16.1995ZM19.6648 19.6649L11.6703 22.3297L14.3351 14.3351L22.3297 11.6703L19.6648 19.6649ZM23.1894 9.95081L13.5835 13.1528C13.3793 13.2208 13.2208 13.3793 13.1528 13.5835L9.95079 23.1895C9.86994 23.4336 9.93398 23.7026 10.1157 23.8843C10.2974 24.066 10.5664 24.13 10.8105 24.0492L20.4165 20.8472C20.5182 20.8128 20.6086 20.7559 20.6823 20.6823C20.7559 20.6086 20.8128 20.5182 20.8472 20.4165L24.0492 10.8105C24.13 10.5664 24.066 10.2974 23.8843 10.1157C23.7026 9.934 23.4336 9.86996 23.1894 9.95081ZM24.5247 24.5247C20.3749 28.6745 13.6243 28.6737 9.4753 24.5247C5.32632 20.3757 5.32552 13.6251 9.4753 9.47532C13.6251 5.32553 20.3757 5.32634 24.5247 9.47532C28.6736 13.6243 28.6744 20.3749 24.5247 24.5247ZM8.5147 8.51472C3.83579 13.1936 3.83579 20.8064 8.5147 25.4853C13.1936 30.1642 20.8064 30.1642 25.4853 25.4853C30.1642 20.8064 30.1642 13.1936 25.4853 8.51472C20.8064 3.83581 13.1936 3.83581 8.5147 8.51472Z" fill="#717CFF"/>
</svg>
