<svg width="80" height="52" viewBox="0 0 80 52" fill="none" xmlns="http://www.w3.org/2000/svg">
<path d="M68.62 13.9401C68.62 13.9401 56.3341 5.8422 44.1048 11.6264C31.8188 17.4106 12.2859 28.8055 0 20.8811C0 20.8811 16.8153 49.9178 51.5782 39.6798L60.6936 30.3672L69.809 24.1203L72.9795 15.791L68.62 13.9401Z" fill="url(#paint0_linear)" fill-opacity="0.9"/>
<path d="M62.9585 13.8821C66.7108 13.8821 69.7526 10.7745 69.7526 6.94105C69.7526 3.10761 66.7108 0 62.9585 0C59.2063 0 56.1644 3.10761 56.1644 6.94105C56.1644 10.7745 59.2063 13.8821 62.9585 13.8821Z" fill="url(#paint1_linear)"/>
<path d="M62.9585 13.8821C66.7108 13.8821 69.7526 10.7745 69.7526 6.94105C69.7526 3.10761 66.7108 0 62.9585 0C59.2063 0 56.1644 3.10761 56.1644 6.94105C56.1644 10.7745 59.2063 13.8821 62.9585 13.8821Z" fill="url(#paint2_linear)"/>
<path d="M80.0001 0C80.0001 0 76.1501 10.4695 68.6201 13.94C68.6201 13.94 69.7524 19.0301 65.9025 23.2525C65.9025 23.2525 55.6547 9.31258 37.0276 26.9544C37.0276 26.9544 52.4842 20.4761 52.0313 29.2681C51.5782 38.06 35.216 50.6118 25.4211 52C25.4211 52 72.9229 52 80.0001 0Z" fill="url(#paint3_linear)"/>
<defs>
<linearGradient id="paint0_linear" x1="72.1166" y1="2.15167" x2="28.4727" y2="-19.626" gradientUnits="userSpaceOnUse">
<stop stop-color="#294AA0"/>
<stop offset="1" stop-color="#4067CA"/>
</linearGradient>
<linearGradient id="paint1_linear" x1="56.1181" y1="13.9262" x2="69.7494" y2="13.9262" gradientUnits="userSpaceOnUse">
<stop stop-color="#64C08A"/>
<stop offset="0.5" stop-color="#00A550"/>
<stop offset="1" stop-color="#00914C"/>
</linearGradient>
<linearGradient id="paint2_linear" x1="56.1644" y1="11.651" x2="69.7526" y2="11.651" gradientUnits="userSpaceOnUse">
<stop stop-color="#BC4F00"/>
<stop offset="1" stop-color="#E28C17"/>
</linearGradient>
<linearGradient id="paint3_linear" x1="25.4211" y1="43.6429" x2="80.0001" y2="43.6429" gradientUnits="userSpaceOnUse">
<stop stop-color="#BC4F00"/>
<stop offset="1" stop-color="#E28C17"/>
</linearGradient>
</defs>
</svg>
