<svg width="15" height="24" viewBox="0 0 15 24" fill="none" xmlns="http://www.w3.org/2000/svg">
<path id="Phone" fill-rule="evenodd" clip-rule="evenodd" d="M8.60418 20.1191C8.60418 20.7451 8.09699 21.2512 7.47205 21.2512C6.84712 21.2512 6.33992 20.7451 6.33992 20.1191C6.33992 19.493 6.84712 18.9869 7.47205 18.9869C8.09699 18.9869 8.60418 19.493 8.60418 20.1191ZM9.28346 3.50847C9.28346 3.88433 8.98005 4.18774 8.60418 4.18774H6.33992C5.96406 4.18774 5.66064 3.88433 5.66064 3.50847C5.66064 3.1326 5.96406 2.83032 6.33992 2.83032H8.60418C8.98005 2.83032 9.28346 3.1326 9.28346 3.50847ZM13.5855 21.0565C13.5855 21.9305 12.8746 22.6426 12.0006 22.6426H2.94353C2.06953 22.6426 1.35855 21.9305 1.35855 21.0565V2.9424C1.35855 2.06953 2.06953 1.35742 2.94353 1.35742H12.0006C12.8746 1.35742 13.5855 2.06953 13.5855 2.9424V21.0565ZM12.0006 0H2.94354C1.32006 0 0 1.32006 0 2.9424V21.0565C0 22.6799 1.32006 24 2.94354 24H12.0006C13.624 24 14.9441 22.6799 14.9441 21.0565V2.9424C14.9441 1.32006 13.624 0 12.0006 0Z" fill="#717CFF"/>
</svg>
